<?xml version="1.0" encoding="UTF-8" standalone="no"?>
<!DOCTYPE svg PUBLIC "-//W3C//DTD SVG 1.1//EN"
 "http://www.w3.org/Graphics/SVG/1.1/DTD/svg11.dtd">
<!-- Generated by graphviz version 2.38.0 (20140413.2041)
 -->
<!-- Title: %3 Pages: 1 -->
<svg width="364pt" height="748pt"
 viewBox="0.00 0.00 364.00 748.00" xmlns="http://www.w3.org/2000/svg" xmlns:xlink="http://www.w3.org/1999/xlink">
<g id="graph0" class="graph" transform="scale(1 1) rotate(0) translate(4 744)">
<title>%3</title>
<polygon fill="white" stroke="none" points="-4,4 -4,-744 360,-744 360,4 -4,4"/>
<g id="clust1" class="cluster"><title>cluster0</title>
<polygon fill="none" stroke="black" points="8,-496 8,-732 348,-732 348,-496 8,-496"/>
<text text-anchor="middle" x="178" y="-716.8" font-family="Helvetica,sans-Serif" font-size="14.00">Synchronic team</text>
</g>
<g id="clust2" class="cluster"><title>cluster1</title>
<polygon fill="none" stroke="black" points="8,-8 8,-244 348,-244 348,-8 8,-8"/>
<text text-anchor="middle" x="178" y="-228.8" font-family="Helvetica,sans-Serif" font-size="14.00">Diachronic team</text>
</g>
<g id="clust3" class="cluster"><title>cluster2</title>
<polygon fill="none" stroke="black" points="8,-252 8,-488 348,-488 348,-252 8,-252"/>
<text text-anchor="middle" x="178" y="-472.8" font-family="Helvetica,sans-Serif" font-size="14.00">Divide&#45;and&#45;conquer team</text>
</g>
<!-- d1a -->
<g id="node1" class="node"><title>d1a</title>
<ellipse fill="#66c2a5" stroke="black" cx="34" cy="-196" rx="18" ry="18"/>
</g>
<!-- d2a -->
<g id="node19" class="node"><title>d2a</title>
<polygon fill="#66c2a5" stroke="black" points="124,-214 88,-214 88,-178 124,-178 124,-214"/>
</g>
<!-- d1a&#45;&gt;d2a -->
<g id="edge17" class="edge"><title>d1a&#45;&gt;d2a</title>
<path fill="none" stroke="black" d="M52.3034,-196C60.0173,-196 69.2875,-196 77.8876,-196"/>
<polygon fill="black" stroke="black" points="77.8957,-199.5 87.8957,-196 77.8956,-192.5 77.8957,-199.5"/>
</g>
<!-- c1a -->
<g id="node2" class="node"><title>c1a</title>
<ellipse fill="#66c2a5" stroke="black" cx="34" cy="-440" rx="18" ry="18"/>
</g>
<!-- c2a -->
<g id="node22" class="node"><title>c2a</title>
<ellipse fill="#66c2a5" stroke="black" cx="106" cy="-440" rx="18" ry="18"/>
</g>
<!-- c1a&#45;&gt;c2a -->
<g id="edge33" class="edge"><title>c1a&#45;&gt;c2a</title>
<path fill="none" stroke="black" d="M52.3034,-440C60.0173,-440 69.2875,-440 77.8876,-440"/>
<polygon fill="black" stroke="black" points="77.8957,-443.5 87.8957,-440 77.8956,-436.5 77.8957,-443.5"/>
</g>
<!-- s1a -->
<g id="node3" class="node"><title>s1a</title>
<ellipse fill="#66c2a5" stroke="black" cx="34" cy="-684" rx="18" ry="18"/>
</g>
<!-- s2a -->
<g id="node16" class="node"><title>s2a</title>
<polygon fill="#66c2a5" stroke="black" points="124,-702 88,-702 88,-666 124,-666 124,-702"/>
</g>
<!-- s1a&#45;&gt;s2a -->
<g id="edge1" class="edge"><title>s1a&#45;&gt;s2a</title>
<path fill="none" stroke="black" d="M52.3034,-684C60.0173,-684 69.2875,-684 77.8876,-684"/>
<polygon fill="black" stroke="black" points="77.8957,-687.5 87.8957,-684 77.8956,-680.5 77.8957,-687.5"/>
</g>
<!-- s1b -->
<g id="node4" class="node"><title>s1b</title>
<ellipse fill="#fc8d62" stroke="black" cx="34" cy="-630" rx="18" ry="18"/>
</g>
<!-- s2b -->
<g id="node5" class="node"><title>s2b</title>
<polygon fill="#fc8d62" stroke="black" points="124,-648 88,-648 88,-612 124,-612 124,-648"/>
</g>
<!-- s1b&#45;&gt;s2b -->
<g id="edge5" class="edge"><title>s1b&#45;&gt;s2b</title>
<path fill="none" stroke="black" d="M52.3034,-630C60.0173,-630 69.2875,-630 77.8876,-630"/>
<polygon fill="black" stroke="black" points="77.8957,-633.5 87.8957,-630 77.8956,-626.5 77.8957,-633.5"/>
</g>
<!-- s3b -->
<g id="node6" class="node"><title>s3b</title>
<polygon fill="#fc8d62" stroke="black" points="178,-648 160,-630 178,-612 196,-630 178,-648"/>
</g>
<!-- s2b&#45;&gt;s3b -->
<g id="edge6" class="edge"><title>s2b&#45;&gt;s3b</title>
<path fill="none" stroke="black" d="M124.303,-630C132.017,-630 141.288,-630 149.888,-630"/>
<polygon fill="black" stroke="black" points="149.896,-633.5 159.896,-630 149.896,-626.5 149.896,-633.5"/>
</g>
<!-- s4b -->
<g id="node7" class="node"><title>s4b</title>
<polygon fill="#fc8d62" stroke="black" points="250,-648 232,-621 268,-621 250,-648"/>
</g>
<!-- s3b&#45;&gt;s4b -->
<g id="edge7" class="edge"><title>s3b&#45;&gt;s4b</title>
<path fill="none" stroke="black" d="M196.303,-630C205.818,-630 217.7,-630 227.771,-630"/>
<polygon fill="black" stroke="black" points="227.792,-633.5 237.792,-630 227.792,-626.5 227.792,-633.5"/>
</g>
<!-- sinv2 -->
<!-- s4b&#45;&gt;sinv2 -->
<g id="edge8" class="edge"><title>s4b&#45;&gt;sinv2</title>
<path fill="none" stroke="black" d="M262.247,-630C270.74,-630 282.767,-630 293.729,-630"/>
<polygon fill="black" stroke="black" points="293.763,-633.5 303.763,-630 293.763,-626.5 293.763,-633.5"/>
</g>
<!-- d1b -->
<g id="node8" class="node"><title>d1b</title>
<polygon fill="#fc8d62" stroke="black" points="34,-160 16,-133 52,-133 34,-160"/>
</g>
<!-- d2b -->
<g id="node9" class="node"><title>d2b</title>
<ellipse fill="#fc8d62" stroke="black" cx="106" cy="-142" rx="18" ry="18"/>
</g>
<!-- d1b&#45;&gt;d2b -->
<g id="edge21" class="edge"><title>d1b&#45;&gt;d2b</title>
<path fill="none" stroke="black" d="M46.2467,-142C54.74,-142 66.7668,-142 77.7289,-142"/>
<polygon fill="black" stroke="black" points="77.7626,-145.5 87.7626,-142 77.7625,-138.5 77.7626,-145.5"/>
</g>
<!-- d3b -->
<g id="node10" class="node"><title>d3b</title>
<polygon fill="#fc8d62" stroke="black" points="196,-160 160,-160 160,-124 196,-124 196,-160"/>
</g>
<!-- d2b&#45;&gt;d3b -->
<g id="edge22" class="edge"><title>d2b&#45;&gt;d3b</title>
<path fill="none" stroke="black" d="M124.303,-142C132.017,-142 141.288,-142 149.888,-142"/>
<polygon fill="black" stroke="black" points="149.896,-145.5 159.896,-142 149.896,-138.5 149.896,-145.5"/>
</g>
<!-- d4b -->
<g id="node11" class="node"><title>d4b</title>
<polygon fill="#fc8d62" stroke="black" points="250,-160 232,-142 250,-124 268,-142 250,-160"/>
</g>
<!-- d3b&#45;&gt;d4b -->
<g id="edge23" class="edge"><title>d3b&#45;&gt;d4b</title>
<path fill="none" stroke="black" d="M196.303,-142C204.017,-142 213.288,-142 221.888,-142"/>
<polygon fill="black" stroke="black" points="221.896,-145.5 231.896,-142 221.896,-138.5 221.896,-145.5"/>
</g>
<!-- dinv2 -->
<!-- d4b&#45;&gt;dinv2 -->
<g id="edge24" class="edge"><title>d4b&#45;&gt;dinv2</title>
<path fill="none" stroke="black" d="M268.303,-142C276.017,-142 285.288,-142 293.888,-142"/>
<polygon fill="black" stroke="black" points="293.896,-145.5 303.896,-142 293.896,-138.5 293.896,-145.5"/>
</g>
<!-- c1b -->
<g id="node12" class="node"><title>c1b</title>
<polygon fill="#fc8d62" stroke="black" points="52,-404 16,-404 16,-368 52,-368 52,-404"/>
</g>
<!-- c2b -->
<g id="node13" class="node"><title>c2b</title>
<polygon fill="#fc8d62" stroke="black" points="124,-404 88,-404 88,-368 124,-368 124,-404"/>
</g>
<!-- c1b&#45;&gt;c2b -->
<g id="edge37" class="edge"><title>c1b&#45;&gt;c2b</title>
<path fill="none" stroke="black" d="M52.3034,-386C60.0173,-386 69.2875,-386 77.8876,-386"/>
<polygon fill="black" stroke="black" points="77.8957,-389.5 87.8957,-386 77.8956,-382.5 77.8957,-389.5"/>
</g>
<!-- c3b -->
<g id="node14" class="node"><title>c3b</title>
<polygon fill="#fc8d62" stroke="black" points="196,-404 160,-404 160,-368 196,-368 196,-404"/>
</g>
<!-- c2b&#45;&gt;c3b -->
<g id="edge38" class="edge"><title>c2b&#45;&gt;c3b</title>
<path fill="none" stroke="black" d="M124.303,-386C132.017,-386 141.288,-386 149.888,-386"/>
<polygon fill="black" stroke="black" points="149.896,-389.5 159.896,-386 149.896,-382.5 149.896,-389.5"/>
</g>
<!-- c4b -->
<g id="node15" class="node"><title>c4b</title>
<polygon fill="#fc8d62" stroke="black" points="268,-404 232,-404 232,-368 268,-368 268,-404"/>
</g>
<!-- c3b&#45;&gt;c4b -->
<g id="edge39" class="edge"><title>c3b&#45;&gt;c4b</title>
<path fill="none" stroke="black" d="M196.303,-386C204.017,-386 213.288,-386 221.888,-386"/>
<polygon fill="black" stroke="black" points="221.896,-389.5 231.896,-386 221.896,-382.5 221.896,-389.5"/>
</g>
<!-- cinv2 -->
<!-- c4b&#45;&gt;cinv2 -->
<g id="edge40" class="edge"><title>c4b&#45;&gt;cinv2</title>
<path fill="none" stroke="black" d="M268.303,-386C276.017,-386 285.288,-386 293.888,-386"/>
<polygon fill="black" stroke="black" points="293.896,-389.5 303.896,-386 293.896,-382.5 293.896,-389.5"/>
</g>
<!-- s3a -->
<g id="node17" class="node"><title>s3a</title>
<polygon fill="#66c2a5" stroke="black" points="178,-702 160,-684 178,-666 196,-684 178,-702"/>
</g>
<!-- s2a&#45;&gt;s3a -->
<g id="edge2" class="edge"><title>s2a&#45;&gt;s3a</title>
<path fill="none" stroke="black" d="M124.303,-684C132.017,-684 141.288,-684 149.888,-684"/>
<polygon fill="black" stroke="black" points="149.896,-687.5 159.896,-684 149.896,-680.5 149.896,-687.5"/>
</g>
<!-- s4a -->
<g id="node18" class="node"><title>s4a</title>
<polygon fill="#66c2a5" stroke="black" points="250,-702 232,-675 268,-675 250,-702"/>
</g>
<!-- s3a&#45;&gt;s4a -->
<g id="edge3" class="edge"><title>s3a&#45;&gt;s4a</title>
<path fill="none" stroke="black" d="M196.303,-684C205.818,-684 217.7,-684 227.771,-684"/>
<polygon fill="black" stroke="black" points="227.792,-687.5 237.792,-684 227.792,-680.5 227.792,-687.5"/>
</g>
<!-- sinv1 -->
<!-- s4a&#45;&gt;sinv1 -->
<g id="edge4" class="edge"><title>s4a&#45;&gt;sinv1</title>
<path fill="none" stroke="black" d="M262.247,-684C270.74,-684 282.767,-684 293.729,-684"/>
<polygon fill="black" stroke="black" points="293.763,-687.5 303.763,-684 293.763,-680.5 293.763,-687.5"/>
</g>
<!-- d3a -->
<g id="node20" class="node"><title>d3a</title>
<polygon fill="#66c2a5" stroke="black" points="178,-214 160,-196 178,-178 196,-196 178,-214"/>
</g>
<!-- d2a&#45;&gt;d3a -->
<g id="edge18" class="edge"><title>d2a&#45;&gt;d3a</title>
<path fill="none" stroke="black" d="M124.303,-196C132.017,-196 141.288,-196 149.888,-196"/>
<polygon fill="black" stroke="black" points="149.896,-199.5 159.896,-196 149.896,-192.5 149.896,-199.5"/>
</g>
<!-- d4a -->
<g id="node21" class="node"><title>d4a</title>
<polygon fill="#66c2a5" stroke="black" points="250,-214 232,-187 268,-187 250,-214"/>
</g>
<!-- d3a&#45;&gt;d4a -->
<g id="edge19" class="edge"><title>d3a&#45;&gt;d4a</title>
<path fill="none" stroke="black" d="M196.303,-196C205.818,-196 217.7,-196 227.771,-196"/>
<polygon fill="black" stroke="black" points="227.792,-199.5 237.792,-196 227.792,-192.5 227.792,-199.5"/>
</g>
<!-- dinv1 -->
<!-- d4a&#45;&gt;dinv1 -->
<g id="edge20" class="edge"><title>d4a&#45;&gt;dinv1</title>
<path fill="none" stroke="black" d="M262.247,-196C270.74,-196 282.767,-196 293.729,-196"/>
<polygon fill="black" stroke="black" points="293.763,-199.5 303.763,-196 293.763,-192.5 293.763,-199.5"/>
</g>
<!-- c3a -->
<g id="node23" class="node"><title>c3a</title>
<ellipse fill="#66c2a5" stroke="black" cx="178" cy="-440" rx="18" ry="18"/>
</g>
<!-- c2a&#45;&gt;c3a -->
<g id="edge34" class="edge"><title>c2a&#45;&gt;c3a</title>
<path fill="none" stroke="black" d="M124.303,-440C132.017,-440 141.288,-440 149.888,-440"/>
<polygon fill="black" stroke="black" points="149.896,-443.5 159.896,-440 149.896,-436.5 149.896,-443.5"/>
</g>
<!-- c4a -->
<g id="node24" class="node"><title>c4a</title>
<ellipse fill="#66c2a5" stroke="black" cx="250" cy="-440" rx="18" ry="18"/>
</g>
<!-- c3a&#45;&gt;c4a -->
<g id="edge35" class="edge"><title>c3a&#45;&gt;c4a</title>
<path fill="none" stroke="black" d="M196.303,-440C204.017,-440 213.288,-440 221.888,-440"/>
<polygon fill="black" stroke="black" points="221.896,-443.5 231.896,-440 221.896,-436.5 221.896,-443.5"/>
</g>
<!-- cinv1 -->
<!-- c4a&#45;&gt;cinv1 -->
<g id="edge36" class="edge"><title>c4a&#45;&gt;cinv1</title>
<path fill="none" stroke="black" d="M268.303,-440C276.017,-440 285.288,-440 293.888,-440"/>
<polygon fill="black" stroke="black" points="293.896,-443.5 303.896,-440 293.896,-436.5 293.896,-443.5"/>
</g>
<!-- s1c -->
<g id="node25" class="node"><title>s1c</title>
<ellipse fill="#8da0cb" stroke="black" cx="34" cy="-576" rx="18" ry="18"/>
</g>
<!-- s2c -->
<g id="node26" class="node"><title>s2c</title>
<polygon fill="#8da0cb" stroke="black" points="124,-594 88,-594 88,-558 124,-558 124,-594"/>
</g>
<!-- s1c&#45;&gt;s2c -->
<g id="edge9" class="edge"><title>s1c&#45;&gt;s2c</title>
<path fill="none" stroke="black" d="M52.3034,-576C60.0173,-576 69.2875,-576 77.8876,-576"/>
<polygon fill="black" stroke="black" points="77.8957,-579.5 87.8957,-576 77.8956,-572.5 77.8957,-579.5"/>
</g>
<!-- s3c -->
<g id="node27" class="node"><title>s3c</title>
<polygon fill="#8da0cb" stroke="black" points="178,-594 160,-576 178,-558 196,-576 178,-594"/>
</g>
<!-- s2c&#45;&gt;s3c -->
<g id="edge10" class="edge"><title>s2c&#45;&gt;s3c</title>
<path fill="none" stroke="black" d="M124.303,-576C132.017,-576 141.288,-576 149.888,-576"/>
<polygon fill="black" stroke="black" points="149.896,-579.5 159.896,-576 149.896,-572.5 149.896,-579.5"/>
</g>
<!-- s4c -->
<g id="node28" class="node"><title>s4c</title>
<polygon fill="#8da0cb" stroke="black" points="250,-594 232,-567 268,-567 250,-594"/>
</g>
<!-- s3c&#45;&gt;s4c -->
<g id="edge11" class="edge"><title>s3c&#45;&gt;s4c</title>
<path fill="none" stroke="black" d="M196.303,-576C205.818,-576 217.7,-576 227.771,-576"/>
<polygon fill="black" stroke="black" points="227.792,-579.5 237.792,-576 227.792,-572.5 227.792,-579.5"/>
</g>
<!-- sinv3 -->
<!-- s4c&#45;&gt;sinv3 -->
<g id="edge12" class="edge"><title>s4c&#45;&gt;sinv3</title>
<path fill="none" stroke="black" d="M262.247,-576C270.74,-576 282.767,-576 293.729,-576"/>
<polygon fill="black" stroke="black" points="293.763,-579.5 303.763,-576 293.763,-572.5 293.763,-579.5"/>
</g>
<!-- d1c -->
<g id="node29" class="node"><title>d1c</title>
<polygon fill="#8da0cb" stroke="black" points="34,-106 16,-88 34,-70 52,-88 34,-106"/>
</g>
<!-- d2c -->
<g id="node30" class="node"><title>d2c</title>
<polygon fill="#8da0cb" stroke="black" points="106,-106 88,-79 124,-79 106,-106"/>
</g>
<!-- d1c&#45;&gt;d2c -->
<g id="edge25" class="edge"><title>d1c&#45;&gt;d2c</title>
<path fill="none" stroke="black" d="M52.3034,-88C61.8177,-88 73.6996,-88 83.7713,-88"/>
<polygon fill="black" stroke="black" points="83.7921,-91.5001 93.7921,-88 83.7921,-84.5001 83.7921,-91.5001"/>
</g>
<!-- d3c -->
<g id="node31" class="node"><title>d3c</title>
<ellipse fill="#8da0cb" stroke="black" cx="178" cy="-88" rx="18" ry="18"/>
</g>
<!-- d2c&#45;&gt;d3c -->
<g id="edge26" class="edge"><title>d2c&#45;&gt;d3c</title>
<path fill="none" stroke="black" d="M118.247,-88C126.74,-88 138.767,-88 149.729,-88"/>
<polygon fill="black" stroke="black" points="149.763,-91.5001 159.763,-88 149.763,-84.5001 149.763,-91.5001"/>
</g>
<!-- d4c -->
<g id="node32" class="node"><title>d4c</title>
<polygon fill="#8da0cb" stroke="black" points="268,-106 232,-106 232,-70 268,-70 268,-106"/>
</g>
<!-- d3c&#45;&gt;d4c -->
<g id="edge27" class="edge"><title>d3c&#45;&gt;d4c</title>
<path fill="none" stroke="black" d="M196.303,-88C204.017,-88 213.288,-88 221.888,-88"/>
<polygon fill="black" stroke="black" points="221.896,-91.5001 231.896,-88 221.896,-84.5001 221.896,-91.5001"/>
</g>
<!-- dinv3 -->
<!-- d4c&#45;&gt;dinv3 -->
<g id="edge28" class="edge"><title>d4c&#45;&gt;dinv3</title>
<path fill="none" stroke="black" d="M268.303,-88C276.017,-88 285.288,-88 293.888,-88"/>
<polygon fill="black" stroke="black" points="293.896,-91.5001 303.896,-88 293.896,-84.5001 293.896,-91.5001"/>
</g>
<!-- c1c -->
<g id="node33" class="node"><title>c1c</title>
<polygon fill="#8da0cb" stroke="black" points="34,-350 16,-332 34,-314 52,-332 34,-350"/>
</g>
<!-- c2c -->
<g id="node34" class="node"><title>c2c</title>
<polygon fill="#8da0cb" stroke="black" points="106,-350 88,-332 106,-314 124,-332 106,-350"/>
</g>
<!-- c1c&#45;&gt;c2c -->
<g id="edge41" class="edge"><title>c1c&#45;&gt;c2c</title>
<path fill="none" stroke="black" d="M52.3034,-332C60.0173,-332 69.2875,-332 77.8876,-332"/>
<polygon fill="black" stroke="black" points="77.8957,-335.5 87.8957,-332 77.8956,-328.5 77.8957,-335.5"/>
</g>
<!-- c3c -->
<g id="node35" class="node"><title>c3c</title>
<polygon fill="#8da0cb" stroke="black" points="178,-350 160,-332 178,-314 196,-332 178,-350"/>
</g>
<!-- c2c&#45;&gt;c3c -->
<g id="edge42" class="edge"><title>c2c&#45;&gt;c3c</title>
<path fill="none" stroke="black" d="M124.303,-332C132.017,-332 141.288,-332 149.888,-332"/>
<polygon fill="black" stroke="black" points="149.896,-335.5 159.896,-332 149.896,-328.5 149.896,-335.5"/>
</g>
<!-- c4c -->
<g id="node36" class="node"><title>c4c</title>
<polygon fill="#8da0cb" stroke="black" points="250,-350 232,-332 250,-314 268,-332 250,-350"/>
</g>
<!-- c3c&#45;&gt;c4c -->
<g id="edge43" class="edge"><title>c3c&#45;&gt;c4c</title>
<path fill="none" stroke="black" d="M196.303,-332C204.017,-332 213.288,-332 221.888,-332"/>
<polygon fill="black" stroke="black" points="221.896,-335.5 231.896,-332 221.896,-328.5 221.896,-335.5"/>
</g>
<!-- cinv3 -->
<!-- c4c&#45;&gt;cinv3 -->
<g id="edge44" class="edge"><title>c4c&#45;&gt;cinv3</title>
<path fill="none" stroke="black" d="M268.303,-332C276.017,-332 285.288,-332 293.888,-332"/>
<polygon fill="black" stroke="black" points="293.896,-335.5 303.896,-332 293.896,-328.5 293.896,-335.5"/>
</g>
<!-- s1d -->
<g id="node37" class="node"><title>s1d</title>
<ellipse fill="#e78ac3" stroke="black" cx="34" cy="-522" rx="18" ry="18"/>
</g>
<!-- s2d -->
<g id="node38" class="node"><title>s2d</title>
<polygon fill="#e78ac3" stroke="black" points="124,-540 88,-540 88,-504 124,-504 124,-540"/>
</g>
<!-- s1d&#45;&gt;s2d -->
<g id="edge13" class="edge"><title>s1d&#45;&gt;s2d</title>
<path fill="none" stroke="black" d="M52.3034,-522C60.0173,-522 69.2875,-522 77.8876,-522"/>
<polygon fill="black" stroke="black" points="77.8957,-525.5 87.8957,-522 77.8956,-518.5 77.8957,-525.5"/>
</g>
<!-- s3d -->
<g id="node39" class="node"><title>s3d</title>
<polygon fill="#e78ac3" stroke="black" points="178,-540 160,-522 178,-504 196,-522 178,-540"/>
</g>
<!-- s2d&#45;&gt;s3d -->
<g id="edge14" class="edge"><title>s2d&#45;&gt;s3d</title>
<path fill="none" stroke="black" d="M124.303,-522C132.017,-522 141.288,-522 149.888,-522"/>
<polygon fill="black" stroke="black" points="149.896,-525.5 159.896,-522 149.896,-518.5 149.896,-525.5"/>
</g>
<!-- s4d -->
<g id="node40" class="node"><title>s4d</title>
<polygon fill="#e78ac3" stroke="black" points="250,-540 232,-513 268,-513 250,-540"/>
</g>
<!-- s3d&#45;&gt;s4d -->
<g id="edge15" class="edge"><title>s3d&#45;&gt;s4d</title>
<path fill="none" stroke="black" d="M196.303,-522C205.818,-522 217.7,-522 227.771,-522"/>
<polygon fill="black" stroke="black" points="227.792,-525.5 237.792,-522 227.792,-518.5 227.792,-525.5"/>
</g>
<!-- sinv4 -->
<!-- s4d&#45;&gt;sinv4 -->
<g id="edge16" class="edge"><title>s4d&#45;&gt;sinv4</title>
<path fill="none" stroke="black" d="M262.247,-522C270.74,-522 282.767,-522 293.729,-522"/>
<polygon fill="black" stroke="black" points="293.763,-525.5 303.763,-522 293.763,-518.5 293.763,-525.5"/>
</g>
<!-- d1d -->
<g id="node41" class="node"><title>d1d</title>
<polygon fill="#e78ac3" stroke="black" points="52,-52 16,-52 16,-16 52,-16 52,-52"/>
</g>
<!-- d2d -->
<g id="node42" class="node"><title>d2d</title>
<polygon fill="#e78ac3" stroke="black" points="106,-52 88,-34 106,-16 124,-34 106,-52"/>
</g>
<!-- d1d&#45;&gt;d2d -->
<g id="edge29" class="edge"><title>d1d&#45;&gt;d2d</title>
<path fill="none" stroke="black" d="M52.3034,-34C60.0173,-34 69.2875,-34 77.8876,-34"/>
<polygon fill="black" stroke="black" points="77.8957,-37.5001 87.8957,-34 77.8956,-30.5001 77.8957,-37.5001"/>
</g>
<!-- d3d -->
<g id="node43" class="node"><title>d3d</title>
<polygon fill="#e78ac3" stroke="black" points="178,-52 160,-25 196,-25 178,-52"/>
</g>
<!-- d2d&#45;&gt;d3d -->
<g id="edge30" class="edge"><title>d2d&#45;&gt;d3d</title>
<path fill="none" stroke="black" d="M124.303,-34C133.818,-34 145.7,-34 155.771,-34"/>
<polygon fill="black" stroke="black" points="155.792,-37.5001 165.792,-34 155.792,-30.5001 155.792,-37.5001"/>
</g>
<!-- d4d -->
<g id="node44" class="node"><title>d4d</title>
<ellipse fill="#e78ac3" stroke="black" cx="250" cy="-34" rx="18" ry="18"/>
</g>
<!-- d3d&#45;&gt;d4d -->
<g id="edge31" class="edge"><title>d3d&#45;&gt;d4d</title>
<path fill="none" stroke="black" d="M190.247,-34C198.74,-34 210.767,-34 221.729,-34"/>
<polygon fill="black" stroke="black" points="221.763,-37.5001 231.763,-34 221.763,-30.5001 221.763,-37.5001"/>
</g>
<!-- dinv4 -->
<!-- d4d&#45;&gt;dinv4 -->
<g id="edge32" class="edge"><title>d4d&#45;&gt;dinv4</title>
<path fill="none" stroke="black" d="M268.303,-34C276.017,-34 285.288,-34 293.888,-34"/>
<polygon fill="black" stroke="black" points="293.896,-37.5001 303.896,-34 293.896,-30.5001 293.896,-37.5001"/>
</g>
<!-- c1d -->
<g id="node45" class="node"><title>c1d</title>
<polygon fill="#e78ac3" stroke="black" points="34,-296 16,-269 52,-269 34,-296"/>
</g>
<!-- c2d -->
<g id="node46" class="node"><title>c2d</title>
<polygon fill="#e78ac3" stroke="black" points="106,-296 88,-269 124,-269 106,-296"/>
</g>
<!-- c1d&#45;&gt;c2d -->
<g id="edge45" class="edge"><title>c1d&#45;&gt;c2d</title>
<path fill="none" stroke="black" d="M46.2467,-278C56.1887,-278 70.9723,-278 83.2224,-278"/>
<polygon fill="black" stroke="black" points="83.5487,-281.5 93.5487,-278 83.5486,-274.5 83.5487,-281.5"/>
</g>
<!-- c3d -->
<g id="node47" class="node"><title>c3d</title>
<polygon fill="#e78ac3" stroke="black" points="178,-296 160,-269 196,-269 178,-296"/>
</g>
<!-- c2d&#45;&gt;c3d -->
<g id="edge46" class="edge"><title>c2d&#45;&gt;c3d</title>
<path fill="none" stroke="black" d="M118.247,-278C128.189,-278 142.972,-278 155.222,-278"/>
<polygon fill="black" stroke="black" points="155.549,-281.5 165.549,-278 155.549,-274.5 155.549,-281.5"/>
</g>
<!-- c4d -->
<g id="node48" class="node"><title>c4d</title>
<polygon fill="#e78ac3" stroke="black" points="250,-296 232,-269 268,-269 250,-296"/>
</g>
<!-- c3d&#45;&gt;c4d -->
<g id="edge47" class="edge"><title>c3d&#45;&gt;c4d</title>
<path fill="none" stroke="black" d="M190.247,-278C200.189,-278 214.972,-278 227.222,-278"/>
<polygon fill="black" stroke="black" points="227.549,-281.5 237.549,-278 227.549,-274.5 227.549,-281.5"/>
</g>
<!-- cinv4 -->
<!-- c4d&#45;&gt;cinv4 -->
<g id="edge48" class="edge"><title>c4d&#45;&gt;cinv4</title>
<path fill="none" stroke="black" d="M262.247,-278C270.74,-278 282.767,-278 293.729,-278"/>
<polygon fill="black" stroke="black" points="293.763,-281.5 303.763,-278 293.763,-274.5 293.763,-281.5"/>
</g>
</g>
</svg>
