<?xml version="1.0" encoding="UTF-8" standalone="no"?>
<!DOCTYPE svg PUBLIC "-//W3C//DTD SVG 1.1//EN"
 "http://www.w3.org/Graphics/SVG/1.1/DTD/svg11.dtd">
<!-- Generated by graphviz version 2.38.0 (20140413.2041)
 -->
<!-- Title: %3 Pages: 1 -->
<svg width="454pt" height="504pt"
 viewBox="0.00 0.00 454.00 504.00" xmlns="http://www.w3.org/2000/svg" xmlns:xlink="http://www.w3.org/1999/xlink">
<g id="graph0" class="graph" transform="scale(1 1) rotate(0) translate(4 500)">
<title>%3</title>
<polygon fill="white" stroke="none" points="-4,4 -4,-500 450,-500 450,4 -4,4"/>
<g id="clust1" class="cluster"><title>cluster0</title>
<polygon fill="none" stroke="black" points="17,-8 17,-244 438,-244 438,-8 17,-8"/>
<text text-anchor="middle" x="227.5" y="-228.8" font-family="Helvetica,sans-Serif" font-size="14.00">Synchronic team</text>
</g>
<g id="clust2" class="cluster"><title>cluster1</title>
<polygon fill="none" stroke="black" points="8,-252 8,-488 438,-488 438,-252 8,-252"/>
<text text-anchor="middle" x="223" y="-472.8" font-family="Helvetica,sans-Serif" font-size="14.00">Diachronic team</text>
</g>
<!-- s1a -->
<g id="node1" class="node"><title>s1a</title>
<ellipse fill="#66c2a5" stroke="black" cx="43" cy="-196" rx="18" ry="18"/>
</g>
<!-- s2a -->
<g id="node2" class="node"><title>s2a</title>
<polygon fill="#66c2a5" stroke="black" points="151,-214 115,-214 115,-178 151,-178 151,-214"/>
</g>
<!-- s1a&#45;&gt;s2a -->
<g id="edge1" class="edge"><title>s1a&#45;&gt;s2a</title>
<path fill="none" stroke="black" d="M61.386,-196C73.7597,-196 90.6314,-196 104.78,-196"/>
<polygon fill="black" stroke="black" points="104.95,-199.5 114.95,-196 104.95,-192.5 104.95,-199.5"/>
</g>
<!-- s3a -->
<g id="node3" class="node"><title>s3a</title>
<polygon fill="#66c2a5" stroke="black" points="223,-214 196,-196 223,-178 250,-196 223,-214"/>
</g>
<!-- s2a&#45;&gt;s3a -->
<g id="edge2" class="edge"><title>s2a&#45;&gt;s3a</title>
<path fill="none" stroke="black" d="M151.386,-196C161.226,-196 173.911,-196 185.809,-196"/>
<polygon fill="black" stroke="black" points="185.971,-199.5 195.971,-196 185.971,-192.5 185.971,-199.5"/>
</g>
<!-- s4a -->
<g id="node4" class="node"><title>s4a</title>
<polygon fill="#66c2a5" stroke="black" points="313,-214 286,-187 340,-187 313,-214"/>
</g>
<!-- s3a&#45;&gt;s4a -->
<g id="edge3" class="edge"><title>s3a&#45;&gt;s4a</title>
<path fill="none" stroke="black" d="M250.403,-196C261.186,-196 273.658,-196 284.547,-196"/>
<polygon fill="black" stroke="black" points="284.788,-199.5 294.788,-196 284.788,-192.5 284.788,-199.5"/>
</g>
<!-- sinv1 -->
<!-- s4a&#45;&gt;sinv1 -->
<g id="edge4" class="edge"><title>s4a&#45;&gt;sinv1</title>
<path fill="none" stroke="black" d="M331.386,-196C341.226,-196 353.911,-196 365.809,-196"/>
<polygon fill="black" stroke="black" points="365.971,-199.5 375.971,-196 365.971,-192.5 365.971,-199.5"/>
</g>
<!-- d1a -->
<g id="node5" class="node"><title>d1a</title>
<ellipse fill="#66c2a5" stroke="black" cx="43" cy="-440" rx="18" ry="18"/>
</g>
<!-- d2a -->
<g id="node6" class="node"><title>d2a</title>
<polygon fill="#66c2a5" stroke="black" points="151,-458 115,-458 115,-422 151,-422 151,-458"/>
</g>
<!-- d1a&#45;&gt;d2a -->
<g id="edge17" class="edge"><title>d1a&#45;&gt;d2a</title>
<path fill="none" stroke="black" d="M61.386,-440C73.7597,-440 90.6314,-440 104.78,-440"/>
<polygon fill="black" stroke="black" points="104.95,-443.5 114.95,-440 104.95,-436.5 104.95,-443.5"/>
</g>
<!-- d3a -->
<g id="node7" class="node"><title>d3a</title>
<polygon fill="#66c2a5" stroke="black" points="223,-458 196,-440 223,-422 250,-440 223,-458"/>
</g>
<!-- d2a&#45;&gt;d3a -->
<g id="edge18" class="edge"><title>d2a&#45;&gt;d3a</title>
<path fill="none" stroke="black" d="M151.386,-440C161.226,-440 173.911,-440 185.809,-440"/>
<polygon fill="black" stroke="black" points="185.971,-443.5 195.971,-440 185.971,-436.5 185.971,-443.5"/>
</g>
<!-- d4a -->
<g id="node8" class="node"><title>d4a</title>
<polygon fill="#66c2a5" stroke="black" points="313,-458 286,-431 340,-431 313,-458"/>
</g>
<!-- d3a&#45;&gt;d4a -->
<g id="edge19" class="edge"><title>d3a&#45;&gt;d4a</title>
<path fill="none" stroke="black" d="M250.403,-440C261.186,-440 273.658,-440 284.547,-440"/>
<polygon fill="black" stroke="black" points="284.788,-443.5 294.788,-440 284.788,-436.5 284.788,-443.5"/>
</g>
<!-- dinv1 -->
<!-- d4a&#45;&gt;dinv1 -->
<g id="edge20" class="edge"><title>d4a&#45;&gt;dinv1</title>
<path fill="none" stroke="black" d="M331.386,-440C341.226,-440 353.911,-440 365.809,-440"/>
<polygon fill="black" stroke="black" points="365.971,-443.5 375.971,-440 365.971,-436.5 365.971,-443.5"/>
</g>
<!-- s1b -->
<g id="node9" class="node"><title>s1b</title>
<ellipse fill="#fc8d62" stroke="black" cx="43" cy="-142" rx="18" ry="18"/>
</g>
<!-- s2b -->
<g id="node10" class="node"><title>s2b</title>
<polygon fill="#fc8d62" stroke="black" points="151,-160 115,-160 115,-124 151,-124 151,-160"/>
</g>
<!-- s1b&#45;&gt;s2b -->
<g id="edge5" class="edge"><title>s1b&#45;&gt;s2b</title>
<path fill="none" stroke="black" d="M61.386,-142C73.7597,-142 90.6314,-142 104.78,-142"/>
<polygon fill="black" stroke="black" points="104.95,-145.5 114.95,-142 104.95,-138.5 104.95,-145.5"/>
</g>
<!-- s3b -->
<g id="node11" class="node"><title>s3b</title>
<polygon fill="#fc8d62" stroke="black" points="223,-160 196,-142 223,-124 250,-142 223,-160"/>
</g>
<!-- s2b&#45;&gt;s3b -->
<g id="edge6" class="edge"><title>s2b&#45;&gt;s3b</title>
<path fill="none" stroke="black" d="M151.386,-142C161.226,-142 173.911,-142 185.809,-142"/>
<polygon fill="black" stroke="black" points="185.971,-145.5 195.971,-142 185.971,-138.5 185.971,-145.5"/>
</g>
<!-- s4b -->
<g id="node12" class="node"><title>s4b</title>
<polygon fill="#fc8d62" stroke="black" points="313,-160 286,-133 340,-133 313,-160"/>
</g>
<!-- s3b&#45;&gt;s4b -->
<g id="edge7" class="edge"><title>s3b&#45;&gt;s4b</title>
<path fill="none" stroke="black" d="M250.403,-142C261.186,-142 273.658,-142 284.547,-142"/>
<polygon fill="black" stroke="black" points="284.788,-145.5 294.788,-142 284.788,-138.5 284.788,-145.5"/>
</g>
<!-- sinv2 -->
<!-- s4b&#45;&gt;sinv2 -->
<g id="edge8" class="edge"><title>s4b&#45;&gt;sinv2</title>
<path fill="none" stroke="black" d="M331.386,-142C341.226,-142 353.911,-142 365.809,-142"/>
<polygon fill="black" stroke="black" points="365.971,-145.5 375.971,-142 365.971,-138.5 365.971,-145.5"/>
</g>
<!-- d1b -->
<g id="node13" class="node"><title>d1b</title>
<polygon fill="#fc8d62" stroke="black" points="43,-404 16,-377 70,-377 43,-404"/>
</g>
<!-- d2b -->
<g id="node14" class="node"><title>d2b</title>
<ellipse fill="#fc8d62" stroke="black" cx="133" cy="-386" rx="18" ry="18"/>
</g>
<!-- d1b&#45;&gt;d2b -->
<g id="edge21" class="edge"><title>d1b&#45;&gt;d2b</title>
<path fill="none" stroke="black" d="M61.386,-386C73.7597,-386 90.6314,-386 104.78,-386"/>
<polygon fill="black" stroke="black" points="104.95,-389.5 114.95,-386 104.95,-382.5 104.95,-389.5"/>
</g>
<!-- d3b -->
<g id="node15" class="node"><title>d3b</title>
<polygon fill="#fc8d62" stroke="black" points="241,-404 205,-404 205,-368 241,-368 241,-404"/>
</g>
<!-- d2b&#45;&gt;d3b -->
<g id="edge22" class="edge"><title>d2b&#45;&gt;d3b</title>
<path fill="none" stroke="black" d="M151.386,-386C163.76,-386 180.631,-386 194.78,-386"/>
<polygon fill="black" stroke="black" points="194.95,-389.5 204.95,-386 194.95,-382.5 194.95,-389.5"/>
</g>
<!-- d4b -->
<g id="node16" class="node"><title>d4b</title>
<polygon fill="#fc8d62" stroke="black" points="313,-404 286,-386 313,-368 340,-386 313,-404"/>
</g>
<!-- d3b&#45;&gt;d4b -->
<g id="edge23" class="edge"><title>d3b&#45;&gt;d4b</title>
<path fill="none" stroke="black" d="M241.386,-386C251.226,-386 263.911,-386 275.809,-386"/>
<polygon fill="black" stroke="black" points="275.971,-389.5 285.971,-386 275.971,-382.5 275.971,-389.5"/>
</g>
<!-- dinv2 -->
<!-- d4b&#45;&gt;dinv2 -->
<g id="edge24" class="edge"><title>d4b&#45;&gt;dinv2</title>
<path fill="none" stroke="black" d="M340.403,-386C348.393,-386 357.311,-386 365.824,-386"/>
<polygon fill="black" stroke="black" points="365.919,-389.5 375.919,-386 365.919,-382.5 365.919,-389.5"/>
</g>
<!-- s1c -->
<g id="node17" class="node"><title>s1c</title>
<ellipse fill="#8da0cb" stroke="black" cx="43" cy="-88" rx="18" ry="18"/>
</g>
<!-- s2c -->
<g id="node18" class="node"><title>s2c</title>
<polygon fill="#8da0cb" stroke="black" points="151,-106 115,-106 115,-70 151,-70 151,-106"/>
</g>
<!-- s1c&#45;&gt;s2c -->
<g id="edge9" class="edge"><title>s1c&#45;&gt;s2c</title>
<path fill="none" stroke="black" d="M61.386,-88C73.7597,-88 90.6314,-88 104.78,-88"/>
<polygon fill="black" stroke="black" points="104.95,-91.5001 114.95,-88 104.95,-84.5001 104.95,-91.5001"/>
</g>
<!-- s3c -->
<g id="node19" class="node"><title>s3c</title>
<polygon fill="#8da0cb" stroke="black" points="223,-106 196,-88 223,-70 250,-88 223,-106"/>
</g>
<!-- s2c&#45;&gt;s3c -->
<g id="edge10" class="edge"><title>s2c&#45;&gt;s3c</title>
<path fill="none" stroke="black" d="M151.386,-88C161.226,-88 173.911,-88 185.809,-88"/>
<polygon fill="black" stroke="black" points="185.971,-91.5001 195.971,-88 185.971,-84.5001 185.971,-91.5001"/>
</g>
<!-- s4c -->
<g id="node20" class="node"><title>s4c</title>
<polygon fill="#8da0cb" stroke="black" points="313,-106 286,-79 340,-79 313,-106"/>
</g>
<!-- s3c&#45;&gt;s4c -->
<g id="edge11" class="edge"><title>s3c&#45;&gt;s4c</title>
<path fill="none" stroke="black" d="M250.403,-88C261.186,-88 273.658,-88 284.547,-88"/>
<polygon fill="black" stroke="black" points="284.788,-91.5001 294.788,-88 284.788,-84.5001 284.788,-91.5001"/>
</g>
<!-- sinv3 -->
<!-- s4c&#45;&gt;sinv3 -->
<g id="edge12" class="edge"><title>s4c&#45;&gt;sinv3</title>
<path fill="none" stroke="black" d="M331.386,-88C341.226,-88 353.911,-88 365.809,-88"/>
<polygon fill="black" stroke="black" points="365.971,-91.5001 375.971,-88 365.971,-84.5001 365.971,-91.5001"/>
</g>
<!-- d1c -->
<g id="node21" class="node"><title>d1c</title>
<polygon fill="#8da0cb" stroke="black" points="43,-350 16,-332 43,-314 70,-332 43,-350"/>
</g>
<!-- d2c -->
<g id="node22" class="node"><title>d2c</title>
<polygon fill="#8da0cb" stroke="black" points="133,-350 106,-323 160,-323 133,-350"/>
</g>
<!-- d1c&#45;&gt;d2c -->
<g id="edge25" class="edge"><title>d1c&#45;&gt;d2c</title>
<path fill="none" stroke="black" d="M70.4029,-332C81.1864,-332 93.6583,-332 104.547,-332"/>
<polygon fill="black" stroke="black" points="104.788,-335.5 114.788,-332 104.788,-328.5 104.788,-335.5"/>
</g>
<!-- d3c -->
<g id="node23" class="node"><title>d3c</title>
<ellipse fill="#8da0cb" stroke="black" cx="223" cy="-332" rx="18" ry="18"/>
</g>
<!-- d2c&#45;&gt;d3c -->
<g id="edge26" class="edge"><title>d2c&#45;&gt;d3c</title>
<path fill="none" stroke="black" d="M151.386,-332C163.76,-332 180.631,-332 194.78,-332"/>
<polygon fill="black" stroke="black" points="194.95,-335.5 204.95,-332 194.95,-328.5 194.95,-335.5"/>
</g>
<!-- d4c -->
<g id="node24" class="node"><title>d4c</title>
<polygon fill="#8da0cb" stroke="black" points="331,-350 295,-350 295,-314 331,-314 331,-350"/>
</g>
<!-- d3c&#45;&gt;d4c -->
<g id="edge27" class="edge"><title>d3c&#45;&gt;d4c</title>
<path fill="none" stroke="black" d="M241.386,-332C253.76,-332 270.631,-332 284.78,-332"/>
<polygon fill="black" stroke="black" points="284.95,-335.5 294.95,-332 284.95,-328.5 284.95,-335.5"/>
</g>
<!-- dinv3 -->
<!-- d4c&#45;&gt;dinv3 -->
<g id="edge28" class="edge"><title>d4c&#45;&gt;dinv3</title>
<path fill="none" stroke="black" d="M331.386,-332C341.226,-332 353.911,-332 365.809,-332"/>
<polygon fill="black" stroke="black" points="365.971,-335.5 375.971,-332 365.971,-328.5 365.971,-335.5"/>
</g>
<!-- s1d -->
<g id="node25" class="node"><title>s1d</title>
<ellipse fill="#e78ac3" stroke="black" cx="43" cy="-34" rx="18" ry="18"/>
</g>
<!-- s2d -->
<g id="node26" class="node"><title>s2d</title>
<polygon fill="#e78ac3" stroke="black" points="151,-52 115,-52 115,-16 151,-16 151,-52"/>
</g>
<!-- s1d&#45;&gt;s2d -->
<g id="edge13" class="edge"><title>s1d&#45;&gt;s2d</title>
<path fill="none" stroke="black" d="M61.386,-34C73.7597,-34 90.6314,-34 104.78,-34"/>
<polygon fill="black" stroke="black" points="104.95,-37.5001 114.95,-34 104.95,-30.5001 104.95,-37.5001"/>
</g>
<!-- s3d -->
<g id="node27" class="node"><title>s3d</title>
<polygon fill="#e78ac3" stroke="black" points="223,-52 196,-34 223,-16 250,-34 223,-52"/>
</g>
<!-- s2d&#45;&gt;s3d -->
<g id="edge14" class="edge"><title>s2d&#45;&gt;s3d</title>
<path fill="none" stroke="black" d="M151.386,-34C161.226,-34 173.911,-34 185.809,-34"/>
<polygon fill="black" stroke="black" points="185.971,-37.5001 195.971,-34 185.971,-30.5001 185.971,-37.5001"/>
</g>
<!-- s4d -->
<g id="node28" class="node"><title>s4d</title>
<polygon fill="#e78ac3" stroke="black" points="313,-52 286,-25 340,-25 313,-52"/>
</g>
<!-- s3d&#45;&gt;s4d -->
<g id="edge15" class="edge"><title>s3d&#45;&gt;s4d</title>
<path fill="none" stroke="black" d="M250.403,-34C261.186,-34 273.658,-34 284.547,-34"/>
<polygon fill="black" stroke="black" points="284.788,-37.5001 294.788,-34 284.788,-30.5001 284.788,-37.5001"/>
</g>
<!-- sinv4 -->
<!-- s4d&#45;&gt;sinv4 -->
<g id="edge16" class="edge"><title>s4d&#45;&gt;sinv4</title>
<path fill="none" stroke="black" d="M331.386,-34C341.226,-34 353.911,-34 365.809,-34"/>
<polygon fill="black" stroke="black" points="365.971,-37.5001 375.971,-34 365.971,-30.5001 365.971,-37.5001"/>
</g>
<!-- d1d -->
<g id="node29" class="node"><title>d1d</title>
<polygon fill="#e78ac3" stroke="black" points="61,-296 25,-296 25,-260 61,-260 61,-296"/>
</g>
<!-- d2d -->
<g id="node30" class="node"><title>d2d</title>
<polygon fill="#e78ac3" stroke="black" points="133,-296 106,-278 133,-260 160,-278 133,-296"/>
</g>
<!-- d1d&#45;&gt;d2d -->
<g id="edge29" class="edge"><title>d1d&#45;&gt;d2d</title>
<path fill="none" stroke="black" d="M61.386,-278C71.2262,-278 83.9112,-278 95.8091,-278"/>
<polygon fill="black" stroke="black" points="95.971,-281.5 105.971,-278 95.971,-274.5 95.971,-281.5"/>
</g>
<!-- d3d -->
<g id="node31" class="node"><title>d3d</title>
<polygon fill="#e78ac3" stroke="black" points="223,-296 196,-269 250,-269 223,-296"/>
</g>
<!-- d2d&#45;&gt;d3d -->
<g id="edge30" class="edge"><title>d2d&#45;&gt;d3d</title>
<path fill="none" stroke="black" d="M160.403,-278C171.186,-278 183.658,-278 194.547,-278"/>
<polygon fill="black" stroke="black" points="194.788,-281.5 204.788,-278 194.788,-274.5 194.788,-281.5"/>
</g>
<!-- d4d -->
<g id="node32" class="node"><title>d4d</title>
<ellipse fill="#e78ac3" stroke="black" cx="313" cy="-278" rx="18" ry="18"/>
</g>
<!-- d3d&#45;&gt;d4d -->
<g id="edge31" class="edge"><title>d3d&#45;&gt;d4d</title>
<path fill="none" stroke="black" d="M241.386,-278C253.76,-278 270.631,-278 284.78,-278"/>
<polygon fill="black" stroke="black" points="284.95,-281.5 294.95,-278 284.95,-274.5 284.95,-281.5"/>
</g>
<!-- dinv4 -->
<!-- d4d&#45;&gt;dinv4 -->
<g id="edge32" class="edge"><title>d4d&#45;&gt;dinv4</title>
<path fill="none" stroke="black" d="M331.386,-278C341.226,-278 353.911,-278 365.809,-278"/>
<polygon fill="black" stroke="black" points="365.971,-281.5 375.971,-278 365.971,-274.5 365.971,-281.5"/>
</g>
</g>
</svg>
