<?xml version="1.0" encoding="UTF-8" standalone="no"?>
<!DOCTYPE svg PUBLIC "-//W3C//DTD SVG 1.1//EN"
 "http://www.w3.org/Graphics/SVG/1.1/DTD/svg11.dtd">
<!-- Generated by graphviz version 2.38.0 (20140413.2041)
 -->
<!-- Title: %3 Pages: 1 -->
<svg width="400pt" height="342pt"
 viewBox="0.00 0.00 400.00 342.00" xmlns="http://www.w3.org/2000/svg" xmlns:xlink="http://www.w3.org/1999/xlink">
<g id="graph0" class="graph" transform="scale(1 1) rotate(0) translate(4 338)">
<title>%3</title>
<polygon fill="white" stroke="none" points="-4,4 -4,-338 396,-338 396,4 -4,4"/>
<g id="clust1" class="cluster"><title>cluster0</title>
<polygon fill="none" stroke="black" points="8,-8 8,-244 150,-244 150,-8 8,-8"/>
<text text-anchor="middle" x="79" y="-228.8" font-family="Helvetica,sans-Serif" font-size="14.00">Synchronic team</text>
</g>
<g id="clust2" class="cluster"><title>cluster1</title>
<polygon fill="none" stroke="black" points="8,-252 8,-326 384,-326 384,-252 8,-252"/>
<text text-anchor="middle" x="196" y="-310.8" font-family="Helvetica,sans-Serif" font-size="14.00">Diachronic team</text>
</g>
<!-- s1 -->
<g id="node1" class="node"><title>s1</title>
<ellipse fill="#66c2a5" stroke="black" cx="34" cy="-196" rx="18" ry="18"/>
</g>
<!-- sinv1 -->
<!-- s1&#45;&gt;sinv1 -->
<g id="edge1" class="edge"><title>s1&#45;&gt;sinv1</title>
<path fill="none" stroke="black" d="M52.1418,-196C59.6437,-196 68.7499,-196 77.6423,-196"/>
<polygon fill="black" stroke="black" points="77.8742,-199.5 87.8741,-196 77.8741,-192.5 77.8742,-199.5"/>
</g>
<!-- s2 -->
<g id="node2" class="node"><title>s2</title>
<ellipse fill="#fc8d62" stroke="black" cx="34" cy="-142" rx="18" ry="18"/>
</g>
<!-- sinv2 -->
<!-- s2&#45;&gt;sinv2 -->
<g id="edge2" class="edge"><title>s2&#45;&gt;sinv2</title>
<path fill="none" stroke="black" d="M52.1418,-142C59.6437,-142 68.7499,-142 77.6423,-142"/>
<polygon fill="black" stroke="black" points="77.8742,-145.5 87.8741,-142 77.8741,-138.5 77.8742,-145.5"/>
</g>
<!-- s3 -->
<g id="node3" class="node"><title>s3</title>
<ellipse fill="#8da0cb" stroke="black" cx="34" cy="-88" rx="18" ry="18"/>
</g>
<!-- sinv3 -->
<!-- s3&#45;&gt;sinv3 -->
<g id="edge3" class="edge"><title>s3&#45;&gt;sinv3</title>
<path fill="none" stroke="black" d="M52.1418,-88C59.6437,-88 68.7499,-88 77.6423,-88"/>
<polygon fill="black" stroke="black" points="77.8742,-91.5001 87.8741,-88 77.8741,-84.5001 77.8742,-91.5001"/>
</g>
<!-- s4 -->
<g id="node4" class="node"><title>s4</title>
<ellipse fill="#e78ac3" stroke="black" cx="34" cy="-34" rx="18" ry="18"/>
</g>
<!-- sinv4 -->
<!-- s4&#45;&gt;sinv4 -->
<g id="edge4" class="edge"><title>s4&#45;&gt;sinv4</title>
<path fill="none" stroke="black" d="M52.1418,-34C59.6437,-34 68.7499,-34 77.6423,-34"/>
<polygon fill="black" stroke="black" points="77.8742,-37.5001 87.8741,-34 77.8741,-30.5001 77.8742,-37.5001"/>
</g>
<!-- d1 -->
<g id="node5" class="node"><title>d1</title>
<ellipse fill="#66c2a5" stroke="black" cx="34" cy="-278" rx="18" ry="18"/>
</g>
<!-- d2 -->
<g id="node6" class="node"><title>d2</title>
<ellipse fill="#fc8d62" stroke="black" cx="115" cy="-278" rx="18" ry="18"/>
</g>
<!-- d1&#45;&gt;d2 -->
<g id="edge5" class="edge"><title>d1&#45;&gt;d2</title>
<path fill="none" stroke="black" d="M52.1418,-278C62.2871,-278 75.3664,-278 86.8832,-278"/>
<polygon fill="black" stroke="black" points="86.8917,-281.5 96.8916,-278 86.8916,-274.5 86.8917,-281.5"/>
</g>
<!-- d3 -->
<g id="node7" class="node"><title>d3</title>
<ellipse fill="#8da0cb" stroke="black" cx="196" cy="-278" rx="18" ry="18"/>
</g>
<!-- d2&#45;&gt;d3 -->
<g id="edge6" class="edge"><title>d2&#45;&gt;d3</title>
<path fill="none" stroke="black" d="M133.142,-278C143.287,-278 156.366,-278 167.883,-278"/>
<polygon fill="black" stroke="black" points="167.892,-281.5 177.892,-278 167.892,-274.5 167.892,-281.5"/>
</g>
<!-- d4 -->
<g id="node8" class="node"><title>d4</title>
<ellipse fill="#e78ac3" stroke="black" cx="268" cy="-278" rx="18" ry="18"/>
</g>
<!-- d3&#45;&gt;d4 -->
<g id="edge7" class="edge"><title>d3&#45;&gt;d4</title>
<path fill="none" stroke="black" d="M214.303,-278C222.017,-278 231.288,-278 239.888,-278"/>
<polygon fill="black" stroke="black" points="239.896,-281.5 249.896,-278 239.896,-274.5 239.896,-281.5"/>
</g>
<!-- dinv1 -->
<!-- d4&#45;&gt;dinv1 -->
<g id="edge8" class="edge"><title>d4&#45;&gt;dinv1</title>
<path fill="none" stroke="black" d="M286.142,-278C293.644,-278 302.75,-278 311.642,-278"/>
<polygon fill="black" stroke="black" points="311.874,-281.5 321.874,-278 311.874,-274.5 311.874,-281.5"/>
</g>
</g>
</svg>
