<?xml version="1.0" encoding="UTF-8" standalone="no"?>
<!DOCTYPE svg PUBLIC "-//W3C//DTD SVG 1.1//EN"
 "http://www.w3.org/Graphics/SVG/1.1/DTD/svg11.dtd">
<!-- Generated by graphviz version 2.38.0 (20140413.2041)
 -->
<!-- Title: %3 Pages: 1 -->
<svg width="328pt" height="288pt"
 viewBox="0.00 0.00 328.00 288.00" xmlns="http://www.w3.org/2000/svg" xmlns:xlink="http://www.w3.org/1999/xlink">
<g id="graph0" class="graph" transform="scale(1 1) rotate(0) translate(4 284)">
<title>%3</title>
<polygon fill="white" stroke="none" points="-4,4 -4,-284 324,-284 324,4 -4,4"/>
<g id="clust1" class="cluster"><title>cluster0</title>
<polygon fill="none" stroke="black" points="8,-8 8,-190 150,-190 150,-8 8,-8"/>
<text text-anchor="middle" x="79" y="-174.8" font-family="Helvetica,sans-Serif" font-size="14.00">Synchronic team</text>
</g>
<g id="clust2" class="cluster"><title>cluster1</title>
<polygon fill="none" stroke="black" points="8,-198 8,-272 312,-272 312,-198 8,-198"/>
<text text-anchor="middle" x="160" y="-256.8" font-family="Helvetica,sans-Serif" font-size="14.00">Diachronic team</text>
</g>
<!-- s1 -->
<g id="node1" class="node"><title>s1</title>
<ellipse fill="#66c2a5" stroke="black" cx="34" cy="-142" rx="18" ry="18"/>
</g>
<!-- sinv1 -->
<!-- s1&#45;&gt;sinv1 -->
<g id="edge1" class="edge"><title>s1&#45;&gt;sinv1</title>
<path fill="none" stroke="black" d="M52.1418,-142C59.6437,-142 68.7499,-142 77.6423,-142"/>
<polygon fill="black" stroke="black" points="77.8742,-145.5 87.8741,-142 77.8741,-138.5 77.8742,-145.5"/>
</g>
<!-- s2 -->
<g id="node2" class="node"><title>s2</title>
<ellipse fill="#fc8d62" stroke="black" cx="34" cy="-88" rx="18" ry="18"/>
</g>
<!-- sinv2 -->
<!-- s2&#45;&gt;sinv2 -->
<g id="edge2" class="edge"><title>s2&#45;&gt;sinv2</title>
<path fill="none" stroke="black" d="M52.1418,-88C59.6437,-88 68.7499,-88 77.6423,-88"/>
<polygon fill="black" stroke="black" points="77.8742,-91.5001 87.8741,-88 77.8741,-84.5001 77.8742,-91.5001"/>
</g>
<!-- s3 -->
<g id="node3" class="node"><title>s3</title>
<ellipse fill="#8da0cb" stroke="black" cx="34" cy="-34" rx="18" ry="18"/>
</g>
<!-- sinv3 -->
<!-- s3&#45;&gt;sinv3 -->
<g id="edge3" class="edge"><title>s3&#45;&gt;sinv3</title>
<path fill="none" stroke="black" d="M52.1418,-34C59.6437,-34 68.7499,-34 77.6423,-34"/>
<polygon fill="black" stroke="black" points="77.8742,-37.5001 87.8741,-34 77.8741,-30.5001 77.8742,-37.5001"/>
</g>
<!-- d1 -->
<g id="node4" class="node"><title>d1</title>
<ellipse fill="#66c2a5" stroke="black" cx="34" cy="-224" rx="18" ry="18"/>
</g>
<!-- d2 -->
<g id="node5" class="node"><title>d2</title>
<ellipse fill="#fc8d62" stroke="black" cx="115" cy="-224" rx="18" ry="18"/>
</g>
<!-- d1&#45;&gt;d2 -->
<g id="edge4" class="edge"><title>d1&#45;&gt;d2</title>
<path fill="none" stroke="black" d="M52.1418,-224C62.2871,-224 75.3664,-224 86.8832,-224"/>
<polygon fill="black" stroke="black" points="86.8917,-227.5 96.8916,-224 86.8916,-220.5 86.8917,-227.5"/>
</g>
<!-- d3 -->
<g id="node6" class="node"><title>d3</title>
<ellipse fill="#8da0cb" stroke="black" cx="196" cy="-224" rx="18" ry="18"/>
</g>
<!-- d2&#45;&gt;d3 -->
<g id="edge5" class="edge"><title>d2&#45;&gt;d3</title>
<path fill="none" stroke="black" d="M133.142,-224C143.287,-224 156.366,-224 167.883,-224"/>
<polygon fill="black" stroke="black" points="167.892,-227.5 177.892,-224 167.892,-220.5 167.892,-227.5"/>
</g>
<!-- dinv1 -->
<!-- d3&#45;&gt;dinv1 -->
<g id="edge6" class="edge"><title>d3&#45;&gt;dinv1</title>
<path fill="none" stroke="black" d="M214.142,-224C221.644,-224 230.75,-224 239.642,-224"/>
<polygon fill="black" stroke="black" points="239.874,-227.5 249.874,-224 239.874,-220.5 239.874,-227.5"/>
</g>
</g>
</svg>
