<?xml version="1.0" encoding="UTF-8" standalone="no"?>
<!DOCTYPE svg PUBLIC "-//W3C//DTD SVG 1.1//EN"
 "http://www.w3.org/Graphics/SVG/1.1/DTD/svg11.dtd">
<!-- Generated by graphviz version 2.38.0 (20140413.2041)
 -->
<!-- Title: %3 Pages: 1 -->
<svg width="185pt" height="338pt"
 viewBox="0.00 0.00 185.00 338.00" xmlns="http://www.w3.org/2000/svg" xmlns:xlink="http://www.w3.org/1999/xlink">
<g id="graph0" class="graph" transform="scale(1 1) rotate(0) translate(4 334)">
<title>%3</title>
<polygon fill="white" stroke="none" points="-4,4 -4,-334 181,-334 181,4 -4,4"/>
<text text-anchor="middle" x="88.5" y="-314.8" font-family="Helvetica,sans-Serif" font-size="14.00">Strategies</text>
<g id="clust1" class="cluster"><title>cluster1</title>
<polygon fill="none" stroke="black" points="8,-226 8,-300 169,-300 169,-226 8,-226"/>
<text text-anchor="middle" x="88.5" y="-284.8" font-family="Helvetica,sans-Serif" font-size="14.00">Diachronic</text>
</g>
<g id="clust2" class="cluster"><title>cluster2</title>
<polygon fill="none" stroke="black" points="8,-144 8,-218 169,-218 169,-144 8,-144"/>
<text text-anchor="middle" x="88.5" y="-202.8" font-family="Helvetica,sans-Serif" font-size="14.00">Isolated</text>
</g>
<g id="clust3" class="cluster"><title>cluster3</title>
<polygon fill="none" stroke="black" points="8,-8 8,-136 114.5,-136 114.5,-8 8,-8"/>
<text text-anchor="middle" x="61.25" y="-120.8" font-family="Helvetica,sans-Serif" font-size="14.00">Synchronic</text>
</g>
<!-- s1 -->
<g id="node1" class="node"><title>s1</title>
<ellipse fill="#66c2a5" stroke="black" cx="34" cy="-88" rx="18" ry="18"/>
</g>
<!-- sinv1 -->
<!-- s1&#45;&gt;sinv1 -->
<g id="edge4" class="edge"><title>s1&#45;&gt;sinv1</title>
<path fill="none" stroke="black" d="M52.3034,-88C65.6386,-88 83.6248,-88 94.7593,-88"/>
<polygon fill="black" stroke="black" points="94.9077,-91.5001 104.908,-88 94.9076,-84.5001 94.9077,-91.5001"/>
</g>
<!-- solo -->
<g id="node2" class="node"><title>solo</title>
<ellipse fill="#fc8d62" stroke="black" cx="34" cy="-170" rx="18" ry="18"/>
</g>
<!-- soloinv1 -->
<!-- solo&#45;&gt;soloinv1 -->
<g id="edge3" class="edge"><title>solo&#45;&gt;soloinv1</title>
<path fill="none" stroke="black" d="M52.1186,-170C78.578,-170 128.581,-170 149.928,-170"/>
<polygon fill="black" stroke="black" points="149.947,-173.5 159.946,-170 149.946,-166.5 149.947,-173.5"/>
</g>
<!-- d1 -->
<g id="node3" class="node"><title>d1</title>
<ellipse fill="#8da0cb" stroke="black" cx="34" cy="-252" rx="18" ry="18"/>
</g>
<!-- d2 -->
<g id="node4" class="node"><title>d2</title>
<ellipse fill="#cbd5e8" stroke="black" cx="106" cy="-252" rx="18" ry="18"/>
</g>
<!-- d1&#45;&gt;d2 -->
<g id="edge1" class="edge"><title>d1&#45;&gt;d2</title>
<path fill="none" stroke="black" d="M52.3034,-252C60.0173,-252 69.2875,-252 77.8876,-252"/>
<polygon fill="black" stroke="black" points="77.8957,-255.5 87.8957,-252 77.8956,-248.5 77.8957,-255.5"/>
</g>
<!-- dinv1 -->
<!-- d2&#45;&gt;dinv1 -->
<g id="edge2" class="edge"><title>d2&#45;&gt;dinv1</title>
<path fill="none" stroke="black" d="M124.061,-252C132.504,-252 142.417,-252 149.691,-252"/>
<polygon fill="black" stroke="black" points="149.941,-255.5 159.941,-252 149.941,-248.5 149.941,-255.5"/>
</g>
<!-- s2 -->
<g id="node5" class="node"><title>s2</title>
<ellipse fill="#b3e2cd" stroke="black" cx="34" cy="-34" rx="18" ry="18"/>
</g>
<!-- sinv2 -->
<!-- s2&#45;&gt;sinv2 -->
<g id="edge5" class="edge"><title>s2&#45;&gt;sinv2</title>
<path fill="none" stroke="black" d="M52.3034,-34C65.6386,-34 83.6248,-34 94.7593,-34"/>
<polygon fill="black" stroke="black" points="94.9077,-37.5001 104.908,-34 94.9076,-30.5001 94.9077,-37.5001"/>
</g>
</g>
</svg>
